# xmcd CD database file
#
# Track frame offsets:
#	150
#	14364
#	29287
#	46424
#	80535
#	89385
#	119939
#	133084
#	166417
#	184889
#
# Disc length: 2854 seconds
#
# Revision: 0
# Processed by: cddbd v1.5.2PL0 Copyright (c) Steve Scherf et al.
# Submitted via: CDex 1.70beta2
#
DISCID=880b240a
DTITLE=Various Artist - Blues Harp Power
DYEAR=1997
DGENRE=Blues
TTITLE0=James Cotton - Superharp
TTITLE1=Sugar Ray and The Bluetones - Mouth On Fire
TTITLE2=Louisiana Red - Vivienne
TTITLE3=Rod Piazza and The Mighty Flyers - Deep Fried
TTITLE4=Jumpin' Johnny Sansone - The Talkin' Is Over (The Walkin' Has Begun)
TTITLE5=William Clarke - The War Is Over
TTITLE6=Anson Fundeburgh and The Rockets - Rack 'Em Up
TTITLE7=Johnny Hoy and The Bluefish - Made For One Another
TTITLE8=Darrell Nulisch and Texas Heat - Orange Soda
TTITLE9=Lee McBee and Mike Morgan - Sweet Lolita
EXTD=YEAR: 1997
EXTT0=
EXTT1=
EXTT2=
EXTT3=
EXTT4=
EXTT5=
EXTT6=
EXTT7=
EXTT8=
EXTT9=
PLAYORDER=
